<mxfile host="Electron" agent="Mozilla/5.0 (Windows NT 10.0; Win64; x64) AppleWebKit/537.36 (KHTML, like Gecko) draw.io/26.0.16 Chrome/132.0.6834.196 Electron/34.2.0 Safari/537.36" version="26.0.16">
  <diagram name="Page-1" id="6XBZy0DJNj5XcQpIid6V">
    <mxGraphModel dx="1829" dy="967" grid="1" gridSize="10" guides="1" tooltips="1" connect="1" arrows="1" fold="1" page="1" pageScale="1" pageWidth="1" pageHeight="1" math="0" shadow="0">
      <root>
        <mxCell id="0" />
        <mxCell id="1" parent="0" />
        <mxCell id="eztDh_vtXxyCpA44A3_1-1" value="Diagrama de Casos de Uso: Software de Consulta à FISPQ&#39;s" style="swimlane;whiteSpace=wrap;html=1;" vertex="1" parent="1">
          <mxGeometry x="-40" y="17" width="360" height="1013" as="geometry" />
        </mxCell>
        <mxCell id="eztDh_vtXxyCpA44A3_1-4" style="edgeStyle=orthogonalEdgeStyle;rounded=0;orthogonalLoop=1;jettySize=auto;html=1;exitX=0.5;exitY=1;exitDx=0;exitDy=0;entryX=0.5;entryY=0;entryDx=0;entryDy=0;dashed=1;endArrow=classic;endFill=0;" edge="1" parent="eztDh_vtXxyCpA44A3_1-1" source="eztDh_vtXxyCpA44A3_1-2" target="eztDh_vtXxyCpA44A3_1-3">
          <mxGeometry relative="1" as="geometry" />
        </mxCell>
        <mxCell id="eztDh_vtXxyCpA44A3_1-5" value="&amp;lt;&amp;lt;extends&amp;gt;&amp;gt;" style="edgeLabel;html=1;align=center;verticalAlign=middle;resizable=0;points=[];" vertex="1" connectable="0" parent="eztDh_vtXxyCpA44A3_1-4">
          <mxGeometry x="-0.1224" relative="1" as="geometry">
            <mxPoint as="offset" />
          </mxGeometry>
        </mxCell>
        <mxCell id="eztDh_vtXxyCpA44A3_1-2" value="UC-01&lt;div&gt;Cadastrar-se&lt;/div&gt;" style="ellipse;whiteSpace=wrap;html=1;" vertex="1" parent="eztDh_vtXxyCpA44A3_1-1">
          <mxGeometry x="111" y="71" width="140" height="80" as="geometry" />
        </mxCell>
        <mxCell id="eztDh_vtXxyCpA44A3_1-3" value="UC-02&lt;div&gt;Identificar-se&lt;/div&gt;" style="ellipse;whiteSpace=wrap;html=1;" vertex="1" parent="eztDh_vtXxyCpA44A3_1-1">
          <mxGeometry x="111" y="216" width="140" height="80" as="geometry" />
        </mxCell>
        <mxCell id="eztDh_vtXxyCpA44A3_1-6" value="UC-03&lt;div&gt;Visualizar lista de produtos químicos&lt;/div&gt;" style="ellipse;whiteSpace=wrap;html=1;" vertex="1" parent="eztDh_vtXxyCpA44A3_1-1">
          <mxGeometry x="113" y="338" width="137" height="86" as="geometry" />
        </mxCell>
        <mxCell id="eztDh_vtXxyCpA44A3_1-11" style="edgeStyle=orthogonalEdgeStyle;rounded=0;orthogonalLoop=1;jettySize=auto;html=1;exitX=0.5;exitY=0;exitDx=0;exitDy=0;entryX=0.5;entryY=1;entryDx=0;entryDy=0;dashed=1;endArrow=classic;endFill=0;" edge="1" parent="eztDh_vtXxyCpA44A3_1-1" source="eztDh_vtXxyCpA44A3_1-7" target="eztDh_vtXxyCpA44A3_1-6">
          <mxGeometry relative="1" as="geometry" />
        </mxCell>
        <mxCell id="eztDh_vtXxyCpA44A3_1-12" value="&amp;lt;&amp;lt;extends&amp;gt;&amp;gt;" style="edgeLabel;html=1;align=center;verticalAlign=middle;resizable=0;points=[];" vertex="1" connectable="0" parent="eztDh_vtXxyCpA44A3_1-11">
          <mxGeometry x="-0.089" relative="1" as="geometry">
            <mxPoint as="offset" />
          </mxGeometry>
        </mxCell>
        <mxCell id="eztDh_vtXxyCpA44A3_1-7" value="UC-04&lt;div&gt;Buscar por nome do produto químico&lt;/div&gt;" style="ellipse;whiteSpace=wrap;html=1;" vertex="1" parent="eztDh_vtXxyCpA44A3_1-1">
          <mxGeometry x="113" y="470" width="137" height="86" as="geometry" />
        </mxCell>
        <mxCell id="eztDh_vtXxyCpA44A3_1-8" value="UC-05&lt;div&gt;Selecionar categoria&lt;/div&gt;&lt;div&gt;de informação&lt;/div&gt;&lt;div&gt;desejada&lt;/div&gt;" style="ellipse;whiteSpace=wrap;html=1;" vertex="1" parent="eztDh_vtXxyCpA44A3_1-1">
          <mxGeometry x="113" y="599" width="137" height="86" as="geometry" />
        </mxCell>
        <mxCell id="eztDh_vtXxyCpA44A3_1-13" style="edgeStyle=orthogonalEdgeStyle;rounded=0;orthogonalLoop=1;jettySize=auto;html=1;entryX=0.5;entryY=1;entryDx=0;entryDy=0;dashed=1;endArrow=classic;endFill=0;" edge="1" parent="eztDh_vtXxyCpA44A3_1-1" source="eztDh_vtXxyCpA44A3_1-9" target="eztDh_vtXxyCpA44A3_1-8">
          <mxGeometry relative="1" as="geometry" />
        </mxCell>
        <mxCell id="eztDh_vtXxyCpA44A3_1-14" value="&amp;lt;&amp;lt;extends&amp;gt;&amp;gt;" style="edgeLabel;html=1;align=center;verticalAlign=middle;resizable=0;points=[];" vertex="1" connectable="0" parent="eztDh_vtXxyCpA44A3_1-13">
          <mxGeometry x="-0.0896" relative="1" as="geometry">
            <mxPoint as="offset" />
          </mxGeometry>
        </mxCell>
        <mxCell id="eztDh_vtXxyCpA44A3_1-9" value="UC-06&lt;div&gt;Selecionar&lt;/div&gt;&lt;div&gt;subcategoria de informação&amp;nbsp;&lt;/div&gt;&lt;div&gt;desejada&lt;br&gt;&lt;/div&gt;" style="ellipse;whiteSpace=wrap;html=1;" vertex="1" parent="eztDh_vtXxyCpA44A3_1-1">
          <mxGeometry x="113" y="744" width="137" height="86" as="geometry" />
        </mxCell>
        <mxCell id="eztDh_vtXxyCpA44A3_1-10" value="UC-07&lt;div&gt;Cadastrar nova&lt;/div&gt;&lt;div&gt;FISPQ&lt;/div&gt;" style="ellipse;whiteSpace=wrap;html=1;" vertex="1" parent="eztDh_vtXxyCpA44A3_1-1">
          <mxGeometry x="113" y="873" width="137" height="86" as="geometry" />
        </mxCell>
        <mxCell id="eztDh_vtXxyCpA44A3_1-25" style="edgeStyle=orthogonalEdgeStyle;shape=connector;curved=0;rounded=1;orthogonalLoop=1;jettySize=auto;html=1;entryX=0;entryY=0.5;entryDx=0;entryDy=0;strokeColor=default;align=center;verticalAlign=middle;fontFamily=Helvetica;fontSize=11;fontColor=default;labelBackgroundColor=default;startFill=0;endArrow=none;" edge="1" parent="1" source="eztDh_vtXxyCpA44A3_1-15" target="eztDh_vtXxyCpA44A3_1-2">
          <mxGeometry relative="1" as="geometry">
            <Array as="points">
              <mxPoint x="-10" y="397" />
              <mxPoint x="-10" y="128" />
            </Array>
          </mxGeometry>
        </mxCell>
        <mxCell id="eztDh_vtXxyCpA44A3_1-26" style="edgeStyle=orthogonalEdgeStyle;shape=connector;curved=0;rounded=1;orthogonalLoop=1;jettySize=auto;html=1;entryX=0;entryY=0.5;entryDx=0;entryDy=0;strokeColor=default;align=center;verticalAlign=middle;fontFamily=Helvetica;fontSize=11;fontColor=default;labelBackgroundColor=default;startFill=0;endArrow=none;" edge="1" parent="1" source="eztDh_vtXxyCpA44A3_1-15" target="eztDh_vtXxyCpA44A3_1-3">
          <mxGeometry relative="1" as="geometry">
            <Array as="points">
              <mxPoint x="-10" y="397" />
              <mxPoint x="-10" y="273" />
            </Array>
          </mxGeometry>
        </mxCell>
        <mxCell id="eztDh_vtXxyCpA44A3_1-29" style="edgeStyle=orthogonalEdgeStyle;shape=connector;curved=0;rounded=1;orthogonalLoop=1;jettySize=auto;html=1;entryX=0;entryY=0.5;entryDx=0;entryDy=0;strokeColor=default;align=center;verticalAlign=middle;fontFamily=Helvetica;fontSize=11;fontColor=default;labelBackgroundColor=default;startFill=0;endArrow=none;" edge="1" parent="1" source="eztDh_vtXxyCpA44A3_1-15" target="eztDh_vtXxyCpA44A3_1-7">
          <mxGeometry relative="1" as="geometry" />
        </mxCell>
        <mxCell id="eztDh_vtXxyCpA44A3_1-30" style="edgeStyle=orthogonalEdgeStyle;shape=connector;curved=0;rounded=1;orthogonalLoop=1;jettySize=auto;html=1;entryX=0;entryY=0.5;entryDx=0;entryDy=0;strokeColor=default;align=center;verticalAlign=middle;fontFamily=Helvetica;fontSize=11;fontColor=default;labelBackgroundColor=default;startFill=0;endArrow=none;" edge="1" parent="1" source="eztDh_vtXxyCpA44A3_1-15" target="eztDh_vtXxyCpA44A3_1-8">
          <mxGeometry relative="1" as="geometry" />
        </mxCell>
        <mxCell id="eztDh_vtXxyCpA44A3_1-31" style="edgeStyle=orthogonalEdgeStyle;shape=connector;curved=0;rounded=1;orthogonalLoop=1;jettySize=auto;html=1;entryX=0;entryY=0.5;entryDx=0;entryDy=0;strokeColor=default;align=center;verticalAlign=middle;fontFamily=Helvetica;fontSize=11;fontColor=default;labelBackgroundColor=default;startFill=0;endArrow=none;" edge="1" parent="1" source="eztDh_vtXxyCpA44A3_1-15" target="eztDh_vtXxyCpA44A3_1-9">
          <mxGeometry relative="1" as="geometry" />
        </mxCell>
        <mxCell id="eztDh_vtXxyCpA44A3_1-15" value="Funcionário" style="shape=umlActor;verticalLabelPosition=bottom;verticalAlign=top;html=1;outlineConnect=0;" vertex="1" parent="1">
          <mxGeometry x="-126" y="367" width="30" height="60" as="geometry" />
        </mxCell>
        <mxCell id="eztDh_vtXxyCpA44A3_1-22" style="edgeStyle=orthogonalEdgeStyle;shape=connector;curved=0;rounded=1;orthogonalLoop=1;jettySize=auto;html=1;entryX=1;entryY=0.5;entryDx=0;entryDy=0;strokeColor=default;align=center;verticalAlign=middle;fontFamily=Helvetica;fontSize=11;fontColor=default;labelBackgroundColor=default;startFill=0;endArrow=none;" edge="1" parent="1" source="eztDh_vtXxyCpA44A3_1-18" target="eztDh_vtXxyCpA44A3_1-6">
          <mxGeometry relative="1" as="geometry" />
        </mxCell>
        <mxCell id="eztDh_vtXxyCpA44A3_1-23" style="edgeStyle=orthogonalEdgeStyle;shape=connector;curved=0;rounded=1;orthogonalLoop=1;jettySize=auto;html=1;entryX=1;entryY=0.5;entryDx=0;entryDy=0;strokeColor=default;align=center;verticalAlign=middle;fontFamily=Helvetica;fontSize=11;fontColor=default;labelBackgroundColor=default;startFill=0;endArrow=none;" edge="1" parent="1" source="eztDh_vtXxyCpA44A3_1-18" target="eztDh_vtXxyCpA44A3_1-3">
          <mxGeometry relative="1" as="geometry" />
        </mxCell>
        <mxCell id="eztDh_vtXxyCpA44A3_1-24" style="edgeStyle=orthogonalEdgeStyle;shape=connector;curved=0;rounded=1;orthogonalLoop=1;jettySize=auto;html=1;entryX=1;entryY=0.5;entryDx=0;entryDy=0;strokeColor=default;align=center;verticalAlign=middle;fontFamily=Helvetica;fontSize=11;fontColor=default;labelBackgroundColor=default;startFill=0;endArrow=none;" edge="1" parent="1" source="eztDh_vtXxyCpA44A3_1-18" target="eztDh_vtXxyCpA44A3_1-2">
          <mxGeometry relative="1" as="geometry" />
        </mxCell>
        <mxCell id="eztDh_vtXxyCpA44A3_1-32" style="edgeStyle=orthogonalEdgeStyle;shape=connector;curved=0;rounded=1;orthogonalLoop=1;jettySize=auto;html=1;entryX=1;entryY=0.5;entryDx=0;entryDy=0;strokeColor=default;align=center;verticalAlign=middle;fontFamily=Helvetica;fontSize=11;fontColor=default;labelBackgroundColor=default;startFill=0;endArrow=none;" edge="1" parent="1" source="eztDh_vtXxyCpA44A3_1-18" target="eztDh_vtXxyCpA44A3_1-10">
          <mxGeometry relative="1" as="geometry" />
        </mxCell>
        <mxCell id="eztDh_vtXxyCpA44A3_1-18" value="Gestor" style="shape=umlActor;verticalLabelPosition=bottom;verticalAlign=top;html=1;outlineConnect=0;" vertex="1" parent="1">
          <mxGeometry x="381" y="368" width="30" height="60" as="geometry" />
        </mxCell>
        <mxCell id="eztDh_vtXxyCpA44A3_1-28" style="edgeStyle=orthogonalEdgeStyle;shape=connector;curved=0;rounded=1;orthogonalLoop=1;jettySize=auto;html=1;entryX=0;entryY=0.485;entryDx=0;entryDy=0;entryPerimeter=0;strokeColor=default;align=center;verticalAlign=middle;fontFamily=Helvetica;fontSize=11;fontColor=default;labelBackgroundColor=default;startFill=0;endArrow=none;" edge="1" parent="1" source="eztDh_vtXxyCpA44A3_1-15" target="eztDh_vtXxyCpA44A3_1-6">
          <mxGeometry relative="1" as="geometry" />
        </mxCell>
      </root>
    </mxGraphModel>
  </diagram>
</mxfile>
